<svg width="1200" height="1200" viewBox="0 0 1200 1200" fill="none" xmlns="http://www.w3.org/2000/svg">
  <rect width="1200" height="1200" rx="72" fill="#1D140F"/>
  <rect x="84" y="84" width="1032" height="1032" rx="54" fill="url(#paint0_linear)"/>
  <rect x="166" y="180" width="868" height="190" rx="28" fill="#FFF8F0" fill-opacity="0.92"/>
  <rect x="204" y="226" width="188" height="24" rx="12" fill="#D06F4C"/>
  <rect x="204" y="274" width="340" height="16" rx="8" fill="#7F5947" fill-opacity="0.42"/>
  <rect x="204" y="306" width="284" height="16" rx="8" fill="#7F5947" fill-opacity="0.24"/>
  <rect x="166" y="424" width="404" height="528" rx="36" fill="#FFFDF9" fill-opacity="0.86"/>
  <rect x="630" y="424" width="404" height="240" rx="36" fill="#261913" fill-opacity="0.82"/>
  <rect x="630" y="712" width="404" height="240" rx="36" fill="#FFF1E6" fill-opacity="0.84"/>
  <circle cx="784" cy="544" r="74" fill="#D06F4C"/>
  <path d="M738 546H830" stroke="#FFF8F0" stroke-width="20" stroke-linecap="round"/>
  <path d="M784 500V592" stroke="#FFF8F0" stroke-width="20" stroke-linecap="round"/>
  <rect x="218" y="474" width="300" height="26" rx="13" fill="#D06F4C" fill-opacity="0.92"/>
  <rect x="218" y="526" width="250" height="18" rx="9" fill="#684C3F" fill-opacity="0.32"/>
  <rect x="218" y="566" width="220" height="18" rx="9" fill="#684C3F" fill-opacity="0.18"/>
  <rect x="218" y="658" width="300" height="26" rx="13" fill="#D06F4C" fill-opacity="0.92"/>
  <rect x="218" y="710" width="250" height="18" rx="9" fill="#684C3F" fill-opacity="0.32"/>
  <rect x="218" y="750" width="220" height="18" rx="9" fill="#684C3F" fill-opacity="0.18"/>
  <rect x="676" y="760" width="184" height="24" rx="12" fill="#D06F4C"/>
  <rect x="676" y="808" width="300" height="18" rx="9" fill="#684C3F" fill-opacity="0.28"/>
  <rect x="676" y="846" width="248" height="18" rx="9" fill="#684C3F" fill-opacity="0.18"/>
  <defs>
    <linearGradient id="paint0_linear" x1="139" y1="130" x2="1063" y2="1084" gradientUnits="userSpaceOnUse">
      <stop stop-color="#F9E5D4"/>
      <stop offset="1" stop-color="#F6F0E8"/>
    </linearGradient>
  </defs>
</svg>
