<svg width="1200" height="1200" viewBox="0 0 1200 1200" fill="none" xmlns="http://www.w3.org/2000/svg">
  <rect width="1200" height="1200" rx="72" fill="#151110"/>
  <rect x="84" y="84" width="1032" height="1032" rx="54" fill="url(#paint0_linear)"/>
  <rect x="160" y="188" width="344" height="344" rx="34" fill="#FFF9F3" fill-opacity="0.9"/>
  <rect x="698" y="668" width="344" height="344" rx="34" fill="#FFF9F3" fill-opacity="0.9"/>
  <path d="M484 362H716" stroke="#D06F4C" stroke-width="34" stroke-linecap="round"/>
  <path d="M646 292L716 362L646 432" stroke="#D06F4C" stroke-width="34" stroke-linecap="round" stroke-linejoin="round"/>
  <path d="M554 838H486C377.752 838 290 750.248 290 642V532" stroke="#2A1E18" stroke-width="34" stroke-linecap="round"/>
  <path d="M486 908L416 838L486 768" stroke="#2A1E18" stroke-width="34" stroke-linecap="round" stroke-linejoin="round"/>
  <rect x="220" y="258" width="220" height="20" rx="10" fill="#D06F4C"/>
  <rect x="220" y="306" width="164" height="14" rx="7" fill="#6F564B" fill-opacity="0.28"/>
  <rect x="220" y="724" width="300" height="22" rx="11" fill="#FFF9F3" fill-opacity="0.72"/>
  <rect x="220" y="776" width="210" height="14" rx="7" fill="#FFF9F3" fill-opacity="0.4"/>
  <rect x="754" y="740" width="220" height="20" rx="10" fill="#D06F4C"/>
  <rect x="754" y="788" width="164" height="14" rx="7" fill="#6F564B" fill-opacity="0.28"/>
  <defs>
    <linearGradient id="paint0_linear" x1="104" y1="96" x2="1074" y2="1100" gradientUnits="userSpaceOnUse">
      <stop stop-color="#E8D3C1"/>
      <stop offset="1" stop-color="#C8A58C"/>
    </linearGradient>
  </defs>
</svg>
